<svg width="129" height="22" viewBox="0 0 129 22" fill="none" xmlns="http://www.w3.org/2000/svg">
    <path d="M31.7061 11.1961C31.3261 10.8711 31.0285 10.4772 30.8137 10.0145C30.5989 9.54619 30.4915 9.05591 30.4915 8.54354C30.4915 7.8935 30.6512 7.30129 30.9707 6.76692C31.2902 6.22707 31.7172 5.79743 32.2515 5.47788C32.7914 5.15843 33.3863 4.99866 34.0363 4.99866H43.8861V7.36191H34.0363C33.7113 7.36191 33.4332 7.47759 33.2017 7.70894C32.9704 7.94039 32.8547 8.21852 32.8547 8.54354C32.8547 8.86857 32.9814 9.15228 33.2348 9.39468C33.4332 9.55445 33.6865 9.6536 33.995 9.69212C34.3035 9.72517 34.6479 9.7417 35.0279 9.7417C35.094 9.7417 35.1601 9.7417 35.2262 9.7417H35.2345C36.16 9.75822 37.0855 9.76101 38.011 9.74996H38.2836C38.7354 9.74449 39.1843 9.73622 39.6305 9.72517C39.7848 9.72517 39.9418 9.72249 40.1016 9.71691C40.4707 9.70596 40.859 9.72248 41.2667 9.76648C41.6798 9.81058 42.0902 9.92905 42.4979 10.1219C43.517 10.6452 44.145 11.4742 44.3819 12.6091C44.4811 13.1434 44.4645 13.6695 44.3323 14.1874C44.1891 14.7382 43.9274 15.2258 43.5473 15.6499C43.2058 16.0245 42.8092 16.3137 42.3574 16.5176C41.9057 16.7214 41.4319 16.8233 40.9362 16.8233H30.8881V14.4601H40.9362C41.2556 14.4601 41.5393 14.3305 41.7872 14.0716C42.0407 13.7852 42.1315 13.4464 42.06 13.0552C41.9828 12.6806 41.7817 12.4108 41.4567 12.2455C41.1041 12.1023 40.6662 12.0471 40.1429 12.0803C39.9886 12.0857 39.8344 12.0885 39.6801 12.0885C39.2284 12.0995 38.7684 12.1077 38.3002 12.1133H38.0275C37.0855 12.1298 36.138 12.1271 35.1849 12.1051C35.1243 12.1051 35.0638 12.1051 35.0031 12.1051C34.4909 12.116 33.9455 12.0747 33.3671 11.981C32.7941 11.8819 32.2405 11.6203 31.7061 11.1961ZM59.3499 8.94024C59.3499 9.66734 59.1709 10.3284 58.8128 10.9233C58.4602 11.5183 57.9865 11.9949 57.3915 12.3529C56.7966 12.7054 56.1355 12.8817 55.4084 12.8817H49.401V16.8233H47.0377V4.99866H55.4084C56.1355 4.99866 56.7966 5.17764 57.3915 5.53571C57.9865 5.88831 58.4602 6.36485 58.8128 6.96532C59.1709 7.56021 59.3499 8.21852 59.3499 8.94024ZM49.401 7.36191V10.5185H55.4084C55.8435 10.5185 56.2154 10.3643 56.5239 10.0558C56.8324 9.74727 56.9866 9.37536 56.9866 8.94024C56.9866 8.50502 56.8324 8.13311 56.5239 7.82461C56.2154 7.51621 55.8435 7.36191 55.4084 7.36191H49.401ZM64.212 12.8817V16.8233H61.8487V4.99866H70.2194C70.9465 4.99866 71.6076 5.17764 72.2025 5.53571C72.7974 5.88831 73.2712 6.36485 73.6238 6.96532C73.9819 7.56021 74.1608 8.21852 74.1608 8.94024C74.1608 9.71691 73.9571 10.4193 73.5494 11.0474C73.1473 11.6753 72.6157 12.1546 71.9546 12.4851L74.2601 16.782H71.5745L69.4839 12.8817H64.212ZM64.212 7.36191V10.5185H70.2194C70.6545 10.5185 71.0264 10.3643 71.3349 10.0558C71.6434 9.74727 71.7976 9.37536 71.7976 8.94024C71.7976 8.50502 71.6434 8.13311 71.3349 7.82461C71.0264 7.51621 70.6545 7.36191 70.2194 7.36191H64.212ZM76.7588 4.99866H79.1221V16.8233H76.7588V4.99866ZM83.9842 7.82461V16.8233H81.6209V4.99866H84.4883L93.6443 14.0055V4.99866H96.0075V16.8233H93.1396L83.9842 7.82461ZM111.719 4.99866V7.36191H106.199V16.8233H103.836V7.36191H98.5141V4.99866H111.719ZM114.218 12.0968V9.73344C114.218 8.46639 114.681 7.35086 115.605 6.38685C116.57 5.46135 117.683 4.99866 118.944 4.99866H123.283C124.544 4.99866 125.66 5.46135 126.629 6.38685C127.549 7.35086 128.009 8.46639 128.009 9.73344V12.0968C128.009 13.3583 127.549 14.471 126.629 15.4351C125.66 16.3606 124.544 16.8233 123.283 16.8233H118.944C117.683 16.8233 116.57 16.3606 115.605 15.4351C114.681 14.471 114.218 13.3583 114.218 12.0968ZM116.581 9.73344V12.0968C116.581 12.7467 116.812 13.3032 117.275 13.7659C117.738 14.2287 118.294 14.4601 118.944 14.4601H123.283C123.933 14.4601 124.489 14.2287 124.952 13.7659C125.414 13.3032 125.646 12.7467 125.646 12.0968V9.73344C125.646 9.07792 125.414 8.51876 124.952 8.05606C124.489 7.59326 123.933 7.36191 123.283 7.36191H118.944C118.294 7.36191 117.738 7.59326 117.275 8.05606C116.812 8.51876 116.581 9.07792 116.581 9.73344Z" fill="white"/>
    <path d="M19.5113 0H2.48869C1.11422 0 0 1.11422 0 2.48869V19.5113C0 20.8858 1.11422 22 2.48869 22H19.5113C20.8858 22 22 20.8858 22 19.5113V2.48869C22 1.11422 20.8858 0 19.5113 0Z" fill="white"/>
    <path d="M5.19097 11.2957C4.8108 10.9707 4.51336 10.5768 4.29853 10.1141C4.08361 9.6458 3.9762 9.15552 3.9762 8.64315C3.9762 7.99311 4.13597 7.4009 4.45552 6.86653C4.77497 6.32668 5.20192 5.89704 5.7363 5.57749C6.27614 5.25804 6.87114 5.09827 7.52118 5.09827H17.3709V7.46152H7.52118C7.19616 7.46152 6.91792 7.5772 6.68658 7.80855C6.45523 8.03999 6.33955 8.31813 6.33955 8.64315C6.33955 8.96818 6.46618 9.25189 6.71963 9.49428C6.91792 9.65406 7.17137 9.75321 7.47987 9.79173C7.78837 9.82478 8.1326 9.84131 8.51277 9.84131C8.57887 9.84131 8.64497 9.84131 8.71107 9.84131H8.71934C9.64483 9.85783 10.5703 9.86062 11.4957 9.84957H11.7685C12.2201 9.84409 12.6692 9.83583 13.1154 9.82478C13.2696 9.82478 13.4266 9.82209 13.5863 9.81652C13.9554 9.80557 14.3438 9.82209 14.7515 9.86609C15.1646 9.91019 15.5751 10.0287 15.9827 10.2215C17.0018 10.7448 17.6298 11.5738 17.8667 12.7087C17.9659 13.243 17.9494 13.7692 17.8171 14.287C17.6739 14.8378 17.4122 15.3254 17.0322 15.7496C16.6906 16.1241 16.2939 16.4133 15.8423 16.6172C15.3905 16.821 14.9168 16.9229 14.4209 16.9229H4.37289V14.5597H14.4209C14.7405 14.5597 15.0242 14.4301 15.2721 14.1712C15.5255 13.8848 15.6164 13.546 15.5447 13.1548C15.4677 12.7802 15.2666 12.5104 14.9416 12.3451C14.589 12.2019 14.151 12.1467 13.6276 12.1799C13.4734 12.1854 13.3192 12.1881 13.1649 12.1881C12.7132 12.1991 12.2533 12.2074 11.785 12.2129H11.5122C10.5703 12.2295 9.62273 12.2267 8.66976 12.2047C8.60914 12.2047 8.54851 12.2047 8.48799 12.2047C7.97562 12.2156 7.4303 12.1743 6.85183 12.0806C6.27893 11.9815 5.72525 11.7199 5.19097 11.2957Z" fill="black"/>
</svg>